<svg xmlns="http://www.w3.org/2000/svg" viewBox="0 0 359 72" width="359" height="72"><g transform="translate(0.00 0.00) scale(1.1250)"><path d="M54 32 A22 22 0 1 1 32 10" fill="none" stroke="#FFFFFF" stroke-width="6.5" stroke-linecap="round"/><rect x="42" y="12" width="10" height="10" rx="2" fill="#EE5A24"/></g><path d="M110.37 53.16Q106.08 53.16 102.78 51.78Q99.48 50.4 97.2 48.045Q94.92 45.69 93.75 42.69Q92.58 39.69 92.58 36.419999999999995V35.16Q92.58 31.83 93.795 28.784999999999997Q95.01 25.74 97.32 23.384999999999998Q99.63 21.029999999999998 102.93 19.665Q106.23 18.299999999999997 110.37 18.299999999999997Q114.53999999999999 18.299999999999997 117.82499999999999 19.665Q121.11 21.029999999999998 123.41999999999999 23.384999999999998Q125.72999999999999 25.74 126.945 28.784999999999997Q128.16 31.83 128.16 35.16V36.419999999999995Q128.16 39.69 126.99 42.69Q125.82 45.69 123.53999999999999 48.045Q121.25999999999999 50.4 117.96 51.78Q114.66 53.16 110.37 53.16ZM110.37 46.019999999999996Q113.43 46.019999999999996 115.53 44.684999999999995Q117.63 43.349999999999994 118.725 41.02499999999999Q119.82 38.699999999999996 119.82 35.78999999999999Q119.82 32.78999999999999 118.695 30.464999999999996Q117.57 28.139999999999997 115.455 26.79Q113.34 25.439999999999998 110.37 25.439999999999998Q107.43 25.439999999999998 105.30000000000001 26.79Q103.17 28.139999999999997 102.045 30.464999999999996Q100.92 32.78999999999999 100.92 35.78999999999999Q100.92 38.699999999999996 102.015 41.02499999999999Q103.11 43.349999999999994 105.225 44.684999999999995Q107.34 46.019999999999996 110.37 46.019999999999996Z M152.82 53.099999999999994Q148.8 53.099999999999994 145.74 51.38999999999999Q142.68 49.67999999999999 140.925 46.394999999999996Q139.17 43.11 139.02 38.42999999999999H140.28V52.019999999999996H133.68V8.219999999999999H142.02V30.15L139.8 33.53999999999999Q140.01 28.499999999999996 141.78 25.139999999999997Q143.55 21.779999999999998 146.55 20.099999999999994Q149.55 18.419999999999995 153.32999999999998 18.419999999999995Q156.72 18.419999999999995 159.48000000000002 19.679999999999996Q162.24 20.939999999999998 164.20499999999998 23.189999999999998Q166.17 25.439999999999998 167.21999999999997 28.455Q168.26999999999998 31.469999999999995 168.26999999999998 35.01V36.269999999999996Q168.26999999999998 39.809999999999995 167.20499999999998 42.855Q166.14 45.9 164.1 48.209999999999994Q162.06 50.519999999999996 159.20999999999998 51.809999999999995Q156.35999999999999 53.099999999999994 152.82 53.099999999999994ZM150.93 46.08Q153.63 46.08 155.655 44.745Q157.68 43.41 158.805 41.05499999999999Q159.93 38.699999999999996 159.93 35.64Q159.93 32.55 158.79000000000002 30.254999999999995Q157.65 27.959999999999997 155.64 26.699999999999996Q153.63 25.439999999999998 150.93 25.439999999999998Q148.5 25.439999999999998 146.415 26.534999999999997Q144.32999999999998 27.629999999999995 143.055 29.714999999999996Q141.78 31.799999999999997 141.78 34.739999999999995V37.14Q141.78 39.959999999999994 143.1 41.955Q144.42 43.949999999999996 146.51999999999998 45.015Q148.62 46.08 150.93 46.08Z M173.82 52.019999999999996V19.439999999999998H180.42V33.239999999999995H180.23999999999998Q180.23999999999998 26.249999999999996 183.23999999999998 22.634999999999998Q186.23999999999998 19.019999999999996 192.05999999999997 19.019999999999996H193.26V26.279999999999998H190.98Q186.74999999999997 26.279999999999998 184.45499999999998 28.544999999999995Q182.16 30.809999999999995 182.16 35.06999999999999V52.019999999999996Z M216.74999999999997 52.019999999999996V42.36H215.36999999999998V31.619999999999997Q215.36999999999998 28.83 213.98999999999998 27.434999999999995Q212.60999999999999 26.039999999999996 209.76 26.039999999999996Q208.26 26.039999999999996 206.15999999999997 26.099999999999994Q204.05999999999997 26.159999999999997 201.92999999999998 26.249999999999996Q199.79999999999998 26.339999999999996 198.11999999999998 26.459999999999997V19.379999999999995Q199.49999999999997 19.259999999999998 201.22499999999997 19.154999999999998Q202.95 19.049999999999997 204.795 19.004999999999995Q206.64 18.959999999999994 208.26 18.959999999999994Q213.26999999999998 18.959999999999994 216.61499999999998 20.294999999999995Q219.95999999999998 21.629999999999995 221.65499999999997 24.449999999999996Q223.34999999999997 27.269999999999996 223.34999999999997 31.83V52.019999999999996ZM206.24999999999997 52.86Q202.70999999999998 52.86 200.05499999999998 51.614999999999995Q197.39999999999998 50.37 195.92999999999998 48.015Q194.45999999999998 45.66 194.45999999999998 42.36Q194.45999999999998 38.79 196.21499999999997 36.495Q197.96999999999997 34.199999999999996 201.17999999999998 33.074999999999996Q204.39 31.949999999999996 208.70999999999998 31.949999999999996H216.26999999999998V36.92999999999999H208.58999999999997Q205.73999999999998 36.92999999999999 204.20999999999998 38.324999999999996Q202.67999999999998 39.72 202.67999999999998 41.97Q202.67999999999998 44.19 204.20999999999998 45.55499999999999Q205.73999999999998 46.919999999999995 208.58999999999997 46.919999999999995Q210.32999999999998 46.919999999999995 211.815 46.28999999999999Q213.29999999999998 45.66 214.27499999999998 44.144999999999996Q215.24999999999997 42.629999999999995 215.36999999999998 39.959999999999994L217.40999999999997 42.3Q217.10999999999999 45.72 215.76 48.06Q214.40999999999997 50.4 212.03999999999996 51.629999999999995Q209.67 52.86 206.24999999999997 52.86Z" fill="#FFFFFF"/><path d="M243.12004028320308 52.36000122070312Q239.8400207519531 52.36000122070312 237.43000854492186 51.40999694824218Q235.0199963378906 50.459992675781244 233.70999023437497 48.159981079101556Q232.39998413085934 45.859969482421874 232.39998413085934 41.95994750976562V10.259999999999998H236.72005737304684V42.59995239257812Q236.72005737304684 45.33994262695312 238.2200518798828 46.82993774414062Q239.72004638671874 48.31993286132812 242.44003784179685 48.31993286132812H248.18003173828123V52.36000122070312ZM226.65999755859372 23.700036621093748V20.259982910156246H248.18003173828123V23.700036621093748Z M268.32000366210934 53.06000244140625Q264.2199975585937 53.06000244140625 261.2199938964843 51.64000122070313Q258.21999023437496 50.22 256.31998901367183 47.849999999999994Q254.41998779296873 45.48 253.48998779296875 42.530000610351564Q252.55998779296874 39.580001220703124 252.55998779296874 36.500002441406245V35.65998779296875Q252.55998779296874 32.55998657226562 253.48998779296875 29.639985351562498Q254.41998779296873 26.719984130859373 256.32998840332027 24.35998352050781Q258.23998901367185 21.99998291015625 261.1499926757812 20.60998168945312Q264.0599963378906 19.219980468749995 267.96000366210933 19.219980468749995Q272.96001708984375 19.219980468749995 276.2900207519531 21.419983520507806Q279.62002441406247 23.61998657226562 281.2900231933594 27.089990844726557Q282.96002197265625 30.559995117187498 282.96002197265625 34.48000122070312V36.840014648437496H254.58001831054685V33.359963378906244H279.8199572753906L278.67994628906246 35.11999877929687Q278.67994628906246 31.580006103515622 277.45995483398434 28.90001770019531Q276.2399633789062 26.220029296874998 273.8599768066406 24.70003784179687Q271.479990234375 23.180046386718747 267.96000366210933 23.180046386718747Q264.2400219726562 23.180046386718747 261.7700354003906 24.900036621093747Q259.300048828125 26.620026855468748 258.07005615234374 29.520014648437495Q256.8400634765625 32.42000244140625 256.8400634765625 36.079995117187494Q256.8400634765625 39.67998413085937 258.07005615234374 42.629970703125Q259.300048828125 45.57995727539062 261.8500360107422 47.33994689941406Q264.40002319335935 49.0999365234375 268.32000366210934 49.0999365234375Q272.47998046875 49.0999365234375 275.0599676513672 47.20994934082031Q277.63995483398435 45.31996215820312 278.19994995117185 42.73998413085937H282.4400207519531Q281.80001953125 45.87999389648437 279.8800158691406 48.209998168945305Q277.96001220703124 50.540002441406244 275.03000793457034 51.80000244140625Q272.1000036621094 53.06000244140625 268.32000366210934 53.06000244140625Z M303.1600048828125 53.06000244140625Q299.13999755859373 53.06000244140625 296.16999389648436 51.630001831054685Q293.199990234375 50.20000122070312 291.2299896240234 47.780000610351564Q289.2599890136718 45.36 288.27998840332026 42.42Q287.2999877929687 39.48 287.2999877929687 36.500002441406245V35.65998779296875Q287.2999877929687 32.59998779296875 288.27998840332026 29.669987182617184Q289.2599890136718 26.73998657226562 291.23999084472655 24.389985351562498Q293.2199926757812 22.039984130859374 296.17999511718745 20.629982299804684Q299.13999755859373 19.219980468749995 303.08000244140624 19.219980468749995Q307.00000854492185 19.219980468749995 310.0900158691406 20.65998413085937Q313.1800231933593 22.099987792968747 315.100025024414 24.719994506835935Q317.0200268554687 27.340001220703122 317.38001953124996 30.94000854492187H313.05994628906245Q312.55995117187496 27.640026855468747 309.9899652099609 25.45003784179687Q307.41997924804684 23.260048828124997 303.08000244140624 23.260048828124997Q299.3000244140625 23.260048828124997 296.7900384521484 24.97003967285156Q294.2800524902343 26.68003051757812 293.0300592041015 29.59001770019531Q291.7800659179687 32.5000048828125 291.7800659179687 36.079995117187494Q291.7800659179687 39.55998413085937 293.04005859374996 42.519970092773434Q294.3000512695312 45.4799560546875 296.83003784179687 47.249945068359374Q299.3600244140625 49.01993408203125 303.1600048828125 49.01993408203125Q306.09999023437496 49.01993408203125 308.2999768066406 47.95994018554687Q310.4999633789062 46.8999462890625 311.8499542236328 45.109956665039064Q313.19994506835934 43.31996704101562 313.45994384765623 41.13997558593749H317.7800170898437Q317.5000231933593 44.7599853515625 315.50002258300776 47.41999145507812Q313.5000219726562 50.079997558593746 310.3100170898437 51.56999999999999Q307.1200122070312 53.06000244140625 303.1600048828125 53.06000244140625Z M324.25998046875 52.019999999999996V8.219999999999999H328.74005859374995V33.00008422851562L327.4400500488281 34.020021972656245Q327.4400500488281 29.580003662109373 328.71004760742187 26.279994506835934Q329.9800451660156 22.979985351562497 332.5900433349609 21.15998291015625Q335.2000415039062 19.33998046875 339.2000427246093 19.33998046875H339.40004516601556Q345.2000427246093 19.33998046875 348.17004089355464 23.099983520507813Q351.14003906249997 26.859986572265623 351.14003906249997 33.58000854492187V52.019999999999996H346.65996093749993V32.619993896484374Q346.65996093749993 28.3800146484375 344.3299694824218 25.920032958984372Q341.99997802734373 23.460051269531245 338.02000854492184 23.460051269531245Q333.78003295898435 23.460051269531245 331.2600457763672 26.19004028320312Q328.74005859374995 28.920029296874997 328.74005859374995 33.34001220703125V52.019999999999996Z" fill="#FFFFFF"/></svg>
